<svg width="20" height="16" viewBox="0 0 20 16" fill="none" xmlns="http://www.w3.org/2000/svg">
<path d="M4.75 4.75L9.13 8.24C9.30655 8.37951 9.52499 8.4554 9.75 8.4554C9.97501 8.4554 10.1935 8.37951 10.37 8.24L14.75 4.75M17.75 14.75H1.75C1.48478 14.75 1.23043 14.6446 1.04289 14.4571C0.855357 14.2696 0.75 14.0152 0.75 13.75V1.75C0.75 1.48478 0.855357 1.23043 1.04289 1.04289C1.23043 0.855357 1.48478 0.75 1.75 0.75H17.75C18.0152 0.75 18.2696 0.855357 18.4571 1.04289C18.6446 1.23043 18.75 1.48478 18.75 1.75V13.75C18.75 14.0152 18.6446 14.2696 18.4571 14.4571C18.2696 14.6446 18.0152 14.75 17.75 14.75Z" stroke="#A6A6A6" stroke-width="1.5" stroke-linecap="round" stroke-linejoin="round"/>
</svg>
