<svg width="18" height="18" viewBox="0 0 18 18" fill="none" xmlns="http://www.w3.org/2000/svg">
<path d="M16.7499 11.4457V14.9485C16.7526 15.2061 16.6993 15.4611 16.5936 15.6962C16.4879 15.9312 16.3324 16.1406 16.1376 16.31C15.9429 16.4794 15.7136 16.6048 15.4656 16.6775C15.2175 16.7502 14.9566 16.7685 14.7008 16.7311C11.1547 16.2774 7.86099 14.6613 5.33859 12.1374C2.8162 9.61353 1.20853 6.3254 0.768917 2.79112C0.731534 2.53705 0.749696 2.27794 0.822161 2.03151C0.894626 1.78508 1.01968 1.55716 1.18877 1.36334C1.35786 1.16951 1.567 1.01437 1.80186 0.908512C2.03672 0.802659 2.29177 0.748597 2.54955 0.750028H6.0124C6.2336 0.748691 6.44746 0.829021 6.61271 0.975514C6.77795 1.12201 6.88286 1.32428 6.90719 1.54329C6.99598 2.71141 7.29927 3.85338 7.80198 4.91243C7.88818 5.113 7.89754 5.33809 7.82828 5.54507C7.75901 5.75205 7.61594 5.92654 7.42617 6.03547L6.65665 6.47221C6.54573 6.53298 6.44902 6.6165 6.3729 6.71725C6.29678 6.818 6.24299 6.9337 6.21508 7.05669C6.18717 7.17968 6.18578 7.30717 6.211 7.43074C6.23622 7.55431 6.28747 7.67114 6.36137 7.77352C7.24661 9.06518 8.36643 10.1806 9.66315 11.0624C9.76593 11.1361 9.88322 11.1871 10.0073 11.2122C10.1313 11.2373 10.2593 11.236 10.3828 11.2082C10.5063 11.1804 10.6224 11.1268 10.7235 11.051C10.8247 10.9751 10.9085 10.8788 10.9695 10.7683L11.408 10.0018C11.5239 9.81027 11.7078 9.66915 11.9233 9.60641C12.1388 9.54367 12.37 9.5639 12.5712 9.66309C13.6344 10.1638 14.7808 10.4659 15.9535 10.5544C16.1734 10.5786 16.3765 10.6831 16.5235 10.8477C16.6706 11.0123 16.7512 11.2254 16.7499 11.4457Z" stroke="#A6A6A6" stroke-width="1.5" stroke-linecap="round" stroke-linejoin="round"/>
</svg>
