<svg width="16" height="18" viewBox="0 0 16 18" fill="none" xmlns="http://www.w3.org/2000/svg">
<path d="M11.5255 6.08333V4.30556C11.5255 3.36256 11.1127 2.45819 10.3778 1.7914C9.64301 1.1246 8.64636 0.75 7.60714 0.75C6.56793 0.75 5.57127 1.1246 4.83644 1.7914C4.1016 2.45819 3.68878 3.36256 3.68878 4.30556V6.08333M9.07653 10.9722C9.07653 11.2359 8.99035 11.4937 8.82889 11.713C8.66744 11.9322 8.43795 12.1031 8.16945 12.2041C7.90096 12.305 7.60551 12.3314 7.32048 12.2799C7.03545 12.2285 6.77363 12.1015 6.56813 11.915C6.36263 11.7286 6.22269 11.491 6.16599 11.2323C6.10929 10.9737 6.13839 10.7056 6.24961 10.462C6.36082 10.2183 6.54916 10.0101 6.7908 9.8636C7.03243 9.71709 7.31653 9.63889 7.60714 9.63889C7.99685 9.63889 8.37059 9.77936 8.64616 10.0294C8.92172 10.2795 9.07653 10.6186 9.07653 10.9722ZM14.4643 15.8611V6.97222C14.4643 6.73647 14.3611 6.51038 14.1774 6.34368C13.9937 6.17698 13.7445 6.08333 13.4847 6.08333H1.72959C1.46979 6.08333 1.22063 6.17698 1.03692 6.34368C0.853207 6.51038 0.75 6.73647 0.75 6.97222V15.8611C0.75 16.0969 0.853207 16.323 1.03692 16.4897C1.22063 16.6564 1.46979 16.75 1.72959 16.75H13.4847C13.7445 16.75 13.9937 16.6564 14.1774 16.4897C14.3611 16.323 14.4643 16.0969 14.4643 15.8611Z" stroke="#A6A6A6" stroke-width="1.5" stroke-linecap="round" stroke-linejoin="round"/>
</svg>
