<svg width="25" height="18" viewBox="0 0 25 18" fill="none" xmlns="http://www.w3.org/2000/svg">
<g clip-path="url(#clip0_1183_3144)">
<path d="M18.6873 13.455C16.9067 14.4323 14.7385 14.9736 12.4998 15C5.20817 15 1.0415 9 1.0415 9C2.33722 7.26142 4.13435 5.74246 6.31234 4.545M10.3123 3.18C11.0293 3.05916 11.7634 2.99875 12.4998 3C19.7915 3 23.9582 9 23.9582 9C23.3259 9.85171 22.5718 10.6536 21.7082 11.3925M14.7082 10.59C14.4221 10.8111 14.0771 10.9884 13.6937 11.1113C13.3104 11.2343 12.8966 11.3004 12.477 11.3058C12.0574 11.3111 11.6406 11.2555 11.2515 11.1424C10.8624 11.0292 10.5089 10.8608 10.2122 10.6471C9.91543 10.4335 9.6815 10.179 9.52433 9.89879C9.36715 9.61863 9.28997 9.31854 9.29737 9.01643C9.30478 8.71432 9.39662 8.41638 9.56742 8.14039C9.73822 7.86439 9.98448 7.61599 10.2915 7.41M1.0415 0.75L23.9582 17.25" stroke="#949494" stroke-width="2" stroke-linecap="round" stroke-linejoin="round"/>
</g>
<defs>
<clipPath id="clip0_1183_3144">
<rect width="25" height="18" fill="white"/>
</clipPath>
</defs>
</svg>
